<svg width="24" height="22" viewBox="0 0 24 22" fill="none" xmlns="http://www.w3.org/2000/svg">
<path d="M22.7742 5.31679C22.5065 6.13005 22.2388 6.94331 21.9757 7.75657C21.2741 9.93296 20.5817 12.114 19.8847 14.2904C19.7185 14.8079 19.5293 14.9511 18.9892 14.9511C15.6151 14.9511 12.2409 14.9511 8.8668 14.9465C8.67756 14.9465 8.59448 15.002 8.53909 15.1822C8.37292 15.6766 8.18829 16.1664 7.99904 16.7024C8.10982 16.7024 8.19752 16.7024 8.28522 16.7024C11.8348 16.7024 15.3889 16.7024 18.9385 16.7024C19.0308 16.7024 19.1231 16.7024 19.2154 16.7117C19.5339 16.7533 19.7555 17.0028 19.7462 17.2985C19.737 17.5989 19.5062 17.8438 19.1923 17.8669C18.9846 17.8807 18.7723 17.8715 18.5184 17.8715C18.9662 18.4398 19.1416 19.0405 18.9985 19.7106C18.8877 20.2373 18.6061 20.6671 18.163 20.9767C17.3645 21.5358 16.3352 21.5173 15.5228 20.7964C14.7335 20.0987 14.6689 19.0729 15.3566 17.89C13.8611 17.89 12.3702 17.89 10.8516 17.89C11.3224 18.523 11.4978 19.1977 11.2393 19.9508C11.087 20.3944 10.8101 20.7502 10.4269 21.009C9.60533 21.5635 8.53447 21.4665 7.80979 20.7641C7.19128 20.168 6.81739 19.0267 7.68978 17.8715C7.52822 17.8715 7.39437 17.8715 7.2559 17.8715C6.73431 17.8622 6.48044 17.5064 6.65122 17.012C6.86817 16.3975 7.08973 15.7829 7.31128 15.1729C7.33436 15.1083 7.35282 15.0436 7.38052 14.9511C7.26974 14.9511 7.17743 14.9511 7.08973 14.9511C6.69739 14.9419 6.42967 14.7201 6.36043 14.3412C6.1158 13.0243 5.87577 11.7073 5.63575 10.3904C5.21571 8.09851 4.79106 5.8066 4.37564 3.51006C4.35256 3.38068 4.29717 3.32061 4.17716 3.2744C3.2817 2.92784 2.38624 2.57204 1.49077 2.21624C1.11689 2.06837 0.936875 1.73568 1.01996 1.39374C1.12612 0.964004 1.54616 0.746827 1.98466 0.913175C2.54778 1.12573 3.10629 1.35215 3.66481 1.57395C4.15408 1.7634 4.63874 1.9621 5.12802 2.14693C5.43728 2.26245 5.60806 2.47962 5.66806 2.79846C6.08349 5.06265 6.49891 7.33146 6.91433 9.59565C7.14512 10.8571 7.37591 12.1186 7.60208 13.3801C7.62516 13.5141 7.68055 13.5603 7.82364 13.5603C11.3732 13.5557 14.9273 13.5557 18.4769 13.5603C18.5923 13.5603 18.6661 13.5418 18.7077 13.4078C19.5062 10.9033 20.3094 8.40348 21.1079 5.89901C21.1125 5.88515 21.1079 5.87129 21.1079 5.8297C20.9509 5.82046 20.794 5.8066 20.6371 5.79735C18.1584 5.69108 15.6797 5.58942 13.201 5.48314C11.664 5.41845 10.1269 5.34914 8.58986 5.27983C8.15136 5.26134 7.86056 4.96099 7.87441 4.54974C7.88826 4.15235 8.20213 3.87048 8.6314 3.88435C9.32377 3.90745 10.0208 3.94442 10.7131 3.97214C12.1948 4.03683 13.6718 4.10614 15.1535 4.16621C17.4614 4.26787 19.7693 4.36491 22.0772 4.46657C22.4465 4.48043 22.6496 4.69761 22.7742 5.02106C22.7742 5.1181 22.7742 5.21513 22.7742 5.31679ZM16.9629 18.3382C16.4506 18.3336 16.0259 18.7494 16.0213 19.2577C16.0167 19.766 16.4459 20.1911 16.9537 20.1911C17.4568 20.1911 17.8768 19.7799 17.8814 19.2762C17.8907 18.7679 17.4753 18.3428 16.9629 18.3382ZM10.1915 19.2623C10.1915 18.7448 9.77611 18.3382 9.25453 18.3382C8.74679 18.3428 8.34061 18.7494 8.33599 19.2577C8.33138 19.7706 8.74679 20.1911 9.26376 20.1957C9.77612 20.1957 10.1915 19.7799 10.1915 19.2623Z" fill="black" stroke="black" stroke-width="0.5" stroke-miterlimit="10"/>
</svg>
