<svg width="25" height="25" viewBox="0 0 25 25" fill="none" xmlns="http://www.w3.org/2000/svg">
<path d="M17.1466 18.5115C14.6183 20.4745 11.7872 21.1637 8.66956 20.4745C6.27904 19.9506 4.35119 18.6603 2.90806 16.6808C-0.0773376 12.5893 0.495514 6.98701 4.24104 3.52416C7.79928 0.232248 13.4837 0.132994 17.2016 3.23743C21.195 6.57345 22.0653 12.7492 18.5401 17.1219C18.6062 17.1936 18.6778 17.2708 18.7494 17.3425C20.3743 18.9691 22.0047 20.5958 23.6241 22.2335C23.7893 22.3989 23.9215 22.6305 23.9766 22.8566C24.0758 23.2811 23.8499 23.6726 23.4809 23.8656C23.1008 24.0641 22.6657 24.0035 22.3407 23.6892C21.8615 23.2205 21.3933 22.7463 20.9251 22.2721C19.7244 21.0755 18.5291 19.8734 17.3283 18.6769C17.2732 18.6217 17.2127 18.5721 17.1466 18.5115ZM10.8893 2.90107C6.53792 2.89004 2.96866 6.44663 2.94662 10.8248C2.92459 15.1975 6.48834 18.7872 10.8618 18.7982C15.2187 18.8092 18.799 15.2526 18.821 10.891C18.8431 6.49625 15.2848 2.9121 10.8893 2.90107Z" fill="black" stroke="black" stroke-width="0.5" stroke-miterlimit="10"/>
</svg>
