<svg width="19" height="22" viewBox="0 0 19 22" fill="none" xmlns="http://www.w3.org/2000/svg">
<path d="M13.4849 10.7345C14.7051 11.4291 15.6383 12.3824 16.3465 13.5657C17.1026 14.8352 17.5572 16.2149 17.7629 17.6664C17.8969 18.6149 17.94 19.5778 17.9974 20.5359C18.0309 21.0772 17.7199 21.3694 17.1743 21.3694C11.8722 21.3694 6.57007 21.3694 1.26793 21.3694C0.712836 21.3694 0.420932 21.082 0.425717 20.5215C0.440073 18.5909 0.684125 16.7035 1.41628 14.9023C2.12451 13.1633 3.21077 11.7405 4.85693 10.7824C4.88085 10.768 4.90478 10.7441 4.92871 10.7249C2.49298 8.15722 3.0385 4.23379 5.44073 2.23136C7.72333 0.319946 11.0635 0.410966 13.2312 2.45172C15.4468 4.53559 15.8105 8.19554 13.4849 10.7345ZM16.5188 19.8988C16.4278 17.9682 16.1264 16.1047 15.1549 14.4136C14.5041 13.2783 13.6045 12.4064 12.4129 11.8363C12.2694 11.7645 12.1641 11.7693 12.0206 11.8459C10.1399 12.8423 8.2545 12.828 6.37866 11.8315C6.25902 11.7693 6.16332 11.7549 6.04368 11.8172C5.11055 12.2627 4.33054 12.895 3.71802 13.7286C2.82795 14.9358 2.35899 16.3107 2.12451 17.7766C2.01444 18.4712 1.95702 19.1802 1.87088 19.8988C6.77584 19.8988 11.6329 19.8988 16.5188 19.8988ZM13.6045 6.72007C13.6045 4.29607 11.6377 2.31759 9.21635 2.31759C6.79498 2.31759 4.81864 4.28649 4.81864 6.71048C4.81864 9.13448 6.78541 11.113 9.20678 11.113C11.6282 11.1178 13.6045 9.14406 13.6045 6.72007Z" fill="black" stroke="black" stroke-width="0.5" stroke-miterlimit="10"/>
</svg>
