<svg width="25" height="22" viewBox="0 0 25 22" fill="none" xmlns="http://www.w3.org/2000/svg">
<path d="M1.20497 7.25932C1.27988 6.80935 1.32395 6.35496 1.43853 5.9138C2.04225 3.60216 3.39513 1.91255 5.70427 1.18464C8.17205 0.403802 10.3225 1.03465 12.1029 2.91396C12.3144 3.13454 12.4995 3.37717 12.7066 3.62422C12.9093 3.386 13.0944 3.14777 13.3015 2.92279C14.2842 1.86402 15.4564 1.12729 16.9062 0.942009C19.1449 0.655259 21.0618 1.33905 22.5337 3.06396C24.0055 4.78886 24.4374 6.82699 24.0981 9.04158C23.8821 10.4444 23.2432 11.6664 22.4059 12.7914C21.3086 14.2692 19.9689 15.5133 18.5896 16.7176C16.9635 18.1337 15.3242 19.541 13.6893 20.9483C13.0591 21.4909 12.3849 21.513 11.7812 20.9924C9.64831 19.1396 7.51104 17.2956 5.40461 15.4118C4.33377 14.4589 3.3775 13.3913 2.58869 12.1826C1.84836 11.04 1.35039 9.80919 1.23582 8.44161C1.23141 8.38867 1.21378 8.34015 1.20056 8.29162C1.20497 7.94752 1.20497 7.60342 1.20497 7.25932ZM12.7022 20.0086C12.7595 19.9645 12.808 19.9292 12.852 19.8895C14.672 18.3146 16.5008 16.7529 18.3032 15.1648C19.5635 14.0531 20.7622 12.8752 21.692 11.4635C22.5821 10.118 23.0184 8.65337 22.8157 7.02992C22.5954 5.27854 21.8462 3.82715 20.295 2.91396C18.8496 2.06254 17.3205 1.95666 15.7869 2.6978C14.8791 3.13454 14.2093 3.8448 13.6452 4.66975C13.5659 4.78886 13.491 4.91239 13.4073 5.02709C13.0371 5.53441 12.3761 5.53 12.0015 5.0315C11.6754 4.59476 11.3758 4.13155 11.0012 3.73451C9.79814 2.45958 8.30866 1.96548 6.59443 2.33605C4.74359 2.7375 3.52733 3.91097 2.91479 5.67558C2.20089 7.72694 2.54022 9.65919 3.72123 11.4591C4.45275 12.5752 5.35173 13.5546 6.33884 14.4413C7.96934 15.9103 9.63509 17.3441 11.2832 18.7867C11.7547 19.1969 12.2263 19.5984 12.7022 20.0086Z" fill="black" stroke="black" stroke-width="0.5" stroke-miterlimit="10"/>
</svg>
